<?xml version="1.0" encoding="utf-8"?>
<!-- Generator: Adobe Illustrator 23.1.0, SVG Export Plug-In . SVG Version: 6.00 Build 0)  -->
<svg version="1.1" id="图层_1" xmlns="http://www.w3.org/2000/svg" xmlns:xlink="http://www.w3.org/1999/xlink" x="0px" y="0px"
	 viewBox="0 0 512 512" style="enable-background:new 0 0 512 512;" xml:space="preserve">
<style type="text/css">
	.st0{fill:#FFFFFF;filter:url(#Adobe_OpacityMaskFilter);}
	.st1{mask:url(#a_1_);stroke:#FFFFFF;stroke-width:25;stroke-linecap:round;}
	.st2{fill:#FFFFFF;}
	.st3{fill:#FFFFFF;filter:url(#Adobe_OpacityMaskFilter_1_);}
	.st4{mask:url(#a_2_);}
</style>
<circle cx="256" cy="256" r="256"/>
<defs>
	<filter id="Adobe_OpacityMaskFilter" filterUnits="userSpaceOnUse" x="46.8" y="-21.8" width="407.2" height="532.2">
		<feColorMatrix  type="matrix" values="1 0 0 0 0  0 1 0 0 0  0 0 1 0 0  0 0 0 1 0"/>
	</filter>
</defs>
<mask maskUnits="userSpaceOnUse" x="46.8" y="-21.8" width="407.2" height="532.2" id="a_1_">
	<circle class="st0" cx="256" cy="256" r="230"/>
</mask>
<path class="st1" d="M187,445.6l-33.5-56 M99.1,309.3l-33.5-56 M92.8,402l-33.5-56 M272.7,451.9l-33.5-56 M369.8,497.9l-33.5-56
	 M396.2,426.6l-33.5-56 M118.1,191l-33.5-56 M259.4,160.5l-33.5-56 M441.5,161.5l-33.5-56 M351.4,134.3l-33.5-56 M155.2,97.9
	l-33.5-56 M248.4,46.7l-33.5-56"/>
<g>
	<path d="M479.9,227.4c-15.8-37.7-53.3-72.5-136.6-72.5c-25.7,0-54.4,5.5-84.1,16.2c-11.6-25.2-33.7-39.7-55.1-35.3
		c-13.6,2.8-25,12.2-31.9,27.3c-6.5,15-8.3,31.7-5.1,47.8c0.4,2.5,1.1,4.9,1.8,7.2C128.6,246.8,105,277,105,300.1
		c0,56.4,96,64,199.7,64c100,0,186.3,0,186.3-77.9c0.2-13.9-1.6-27.5-4.9-40.9c-1.6-6-0.9-4.2-3.8-12.2 M304.7,345
		c-77.9,0-181.2-4.6-181.2-44.8c0-14.1,19-41.4,61.4-70.2l6.2-4.2l-2.7-7.2c-1.3-3.7-2.5-7.4-3.1-11.3c-2.5-12-1.3-24.7,3.6-36
		c4.2-9.2,10.9-15.2,18.7-16.9c1.3-0.2,2.7-0.5,4-0.5c13.4,0,27.4,12.9,33.7,32.1l3.1,9.2l8.9-3.5c30.6-11.8,60.5-18,86.1-18
		c106.9,0,129.2,61.2,129.2,112.3C472.5,342.4,411.8,345,304.7,345L304.7,345z"/>
	<path class="st2" d="M271.2,344.5c-77.2-1.8-123.2-10.9-140.1-27.7c-7.6-7.4-9.4-15.7-5.6-25.4c3.3-8.5,10-18.3,21-29.3
		c10.7-11.1,21.4-19.9,37.7-31.4c3.8-2.8,6.9-5.1,6.9-5.3c-2.9-7.9-3.6-9.9-4.2-12.2c-3.3-12-3.6-23.6-0.4-34.4
		c3.6-12.9,10.7-21.3,20.1-24c2.9-0.9,7.6-0.9,10.7,0c8.3,2.3,15.8,8.5,21.6,17.8c2.5,3.9,4.7,8.8,7.1,15.9c1.6,4.6,2.5,6.7,2.7,6.7
		c0.2,0,3.6-1.4,7.4-2.8c26.1-9.9,48.2-15.5,70.5-17.6c12.9-1.4,32.1-0.9,46,0.9c27.9,3.7,49.1,11.8,65.6,25.6
		c3.8,3,10.3,9.7,12.9,13.4c10,13.2,16.5,28.6,19.6,47.4c1.3,8.1,1.6,12.2,1.6,22.4c0,8.8,0,9.7-0.7,12.7
		c-2.7,14.8-10.7,25.4-24.5,32.6c-16.3,8.3-40.2,12.7-80.1,14.3C347.8,344.7,295.3,345.2,271.2,344.5L271.2,344.5z"/>
	<path class="st2" d="M271.2,344.5c-83.7-1.8-130.8-12.5-143.9-32.1c-6.5-9.7-4.7-20.3,6.5-35.6c10.5-14.8,27.2-30,50.7-46.2
		c2.3-1.6,4.6-3.2,6.9-4.9c0,0-0.7-1.6-1.3-3.5c-2.7-7.4-4.2-12.5-5.1-18.5c-0.7-4.2-0.7-13.6,0-17.8c2.7-16.6,10.5-28,21.6-31.2
		c2.9-0.9,7.6-0.9,10.7,0c8.3,2.3,15.8,8.5,21.6,17.8c2.5,3.9,4.9,9.2,7.1,16.2c1.1,3.5,2.2,6.2,2.5,6.5c0.2,0,4.2-1.4,8.9-3
		c25.2-9.7,47.5-15,69.4-17.1c12.3-1.2,29.9-0.9,43.5,0.7c28.8,3.2,50.9,11.8,68.1,25.9c3.6,3,10.3,9.7,12.9,13.4
		c12.5,16.2,19.2,35.6,21.2,60.5c0.4,4.9,0.4,15,0,18.5c-1.8,16.4-10,28.4-25.2,36.3c-16.1,8.3-40.2,12.7-79.9,14.3
		C347.8,344.7,294.9,345.2,271.2,344.5L271.2,344.5z"/>
</g>
<defs>
	<filter id="Adobe_OpacityMaskFilter_1_" filterUnits="userSpaceOnUse" x="182" y="240" width="32" height="32">
		<feColorMatrix  type="matrix" values="1 0 0 0 0  0 1 0 0 0  0 0 1 0 0  0 0 0 1 0"/>
	</filter>
</defs>
<mask maskUnits="userSpaceOnUse" x="182" y="240" width="32" height="32" id="a_2_">
	<circle class="st3" cx="256" cy="256" r="230"/>
</mask>
<circle class="st4" cx="198" cy="256" r="16"/>
</svg>
