<svg width="512" height="512" xmlns="http://www.w3.org/2000/svg">
 <title>Deno logo</title>

 <mask id="a">
  <circle id="svg_1" r="230" cy="256" cx="256" fill="white"/>
 </mask>
 <g>
  <title>Layer 1</title>
  <circle id="svg_2" r="256" cy="256" cx="256"/>
  <path transform="rotate(-46 256.056 259.193)" id="svg_3" d="m74,339l17,-63m19.964,-94.905l17,-63m-88.034,122.905l17,-63m72.034,227l17,-63m17.408,164.829l17,-63m52.628,32.5l17,-63m-40.743,-300.742l17,-63m103.138,143.417l17,-63m108.787,194.689l17,-63m-60.058,-20.693l17,-63m-127.097,-103.442l17,-63m84.597,94.5l17,-63" stroke-linecap="round" stroke-width="25" stroke="white" mask="url(#a)"/>
  <g stroke="null">
   <title stroke="null" id="svg_15">mousetouming5</title>
   <g stroke="null" id="svg_9">
    <g stroke="null" id="svg_11">
     <g stroke="null" id="svg_12">
      <g stroke="null" id="svg_13">
       <path stroke="null" d="m479.85154,227.36269c-15.84309,-37.65795 -53.33097,-72.54354 -136.56299,-72.54354c-25.66135,0 -54.44668,5.54473 -84.12458,16.17213c-11.60339,-25.18231 -33.69446,-39.73723 -55.11611,-35.34765c-13.61167,2.77236 -24.99192,12.24461 -31.90933,27.26158c-6.47112,15.01697 -8.25626,31.65116 -5.13227,47.82329c0.44628,2.54133 1.11571,4.85164 1.78514,7.16194c-40.16558,28.8788 -63.81865,59.14378 -63.81865,82.24682c0,56.37141 95.95112,63.99542 199.71221,63.99542c99.96768,0 186.32368,0 186.32368,-77.85724c0.22314,-13.86182 -1.56199,-27.49262 -4.90913,-40.89238c-1.56199,-6.00679 -0.89257,-4.15855 -3.79342,-12.24461m-177.62114,111.8187c-77.8766,0 -181.19141,-4.62061 -181.19141,-44.81989c0,-14.09285 18.96708,-41.35444 61.36409,-70.23324l6.24798,-4.15855l-2.67771,-7.16194c-1.33885,-3.69649 -2.45456,-7.39297 -3.12399,-11.32049c-2.45456,-12.01358 -1.33885,-24.72025 3.57027,-36.04074c4.2397,-9.24122 10.93396,-15.24801 18.74394,-16.86522c1.33885,-0.23103 2.67771,-0.46206 4.01656,-0.46206c13.38853,0 27.44648,12.9377 33.69446,32.11322l3.12399,9.24122l8.92569,-3.46546c30.57047,-11.78255 60.47152,-18.02037 86.13286,-18.02037c106.88508,0 129.1993,61.22305 129.1993,112.28076c-0.22314,56.37141 -60.9178,58.91275 -168.02603,58.91275z" id="svg_14"/>
      </g>
     </g>
    </g>
    <path stroke="#000000" fill="#FFFFFF" d="m245.77544,240.53142" class="st0" id="svg_10"/>
   </g>
   <path stroke="null" fill="#FFFFFF" d="m271.21364,344.49509c-77.20718,-1.84824 -123.17446,-10.85843 -140.13326,-27.72365c-7.58683,-7.39297 -9.37197,-15.71007 -5.57855,-25.41334c3.34713,-8.54812 10.0414,-18.2514 20.97536,-29.34086c10.71082,-11.08946 21.42164,-19.86861 37.71102,-31.42013c3.79342,-2.77236 6.91741,-5.08267 6.91741,-5.3137c-2.90085,-7.85503 -3.57027,-9.93431 -4.2397,-12.24461c-3.34713,-12.01358 -3.57027,-23.5651 -0.44628,-34.42353c3.57027,-12.9377 10.71082,-21.25479 20.08279,-24.02716c2.90085,-0.92412 7.58683,-0.92412 10.71082,0c8.25626,2.3103 15.84309,8.54812 21.64479,17.78934c2.45456,3.92752 4.68598,8.77915 7.14055,15.9411c1.56199,4.62061 2.45456,6.69988 2.67771,6.69988c0.22314,0 3.57027,-1.38618 7.36369,-2.77236c26.10763,-9.93431 48.1987,-15.47904 70.51291,-17.55831c12.94224,-1.38618 32.13247,-0.92412 45.96728,0.92412c27.89277,3.69649 49.09127,11.78255 65.60379,25.64437c3.79342,3.00339 10.26454,9.70328 12.94224,13.39976c10.0414,13.16873 16.51252,28.64777 19.63651,47.36123c1.33885,8.08606 1.56199,12.24461 1.56199,22.40995c0,8.77915 0,9.70328 -0.66943,12.70667c-2.67771,14.78594 -10.71082,25.41334 -24.54563,32.57528c-16.28938,8.31709 -40.16558,12.70667 -80.10803,14.32388c-19.19022,0.69309 -71.62862,1.15515 -95.72798,0.46206l0,0z" class="st1" id="svg_8"/>
   <path stroke="null" fill="#FFFFFF" d="m271.21364,344.49509c-83.6783,-1.84824 -130.76129,-12.47564 -143.92668,-32.11322c-6.47112,-9.70328 -4.68598,-20.33067 6.47112,-35.57868c10.48768,-14.78594 27.22334,-30.03395 50.65326,-46.20608c3.79342,-2.54133 6.91741,-4.85164 6.91741,-4.85164c0,0 -0.66943,-1.61721 -1.33885,-3.46546c-2.67771,-7.39297 -4.2397,-12.47564 -5.13227,-18.48243c-0.66943,-4.15855 -0.66943,-13.63079 0,-17.78934c2.67771,-16.63419 10.48768,-27.95468 21.64479,-31.1891c2.90085,-0.92412 7.58683,-0.92412 10.71082,0c8.25626,2.3103 15.84309,8.54812 21.64479,17.78934c2.45456,3.92752 4.90913,9.24122 7.14055,16.17213c1.11571,3.46546 2.23142,6.23782 2.45456,6.46885c0.22314,0 4.2397,-1.38618 8.92569,-3.00339c25.21506,-9.70328 47.52927,-15.01697 69.3972,-17.09625c12.27282,-1.15515 29.90105,-0.92412 43.51272,0.69309c28.78534,3.23443 50.87641,11.78255 68.05835,25.8754c3.57027,3.00339 10.26454,9.70328 12.94224,13.39976c12.49596,16.17213 19.19022,35.57868 21.1985,60.52996c0.44628,4.85164 0.44628,15.01697 0,18.48243c-1.78514,16.40316 -10.0414,28.41674 -25.21506,36.27177c-16.06623,8.31709 -40.16558,12.70667 -79.88488,14.32388c-19.63651,0 -72.52119,0.46206 -96.17426,-0.23103l0,0z" class="st1" id="svg_7"/>
  </g>
  <circle id="svg_5" r="16" cy="256" cx="198" mask="url(#a)"/>
 </g>
</svg>