<svg xmlns="http://www.w3.org/2000/svg" viewBox="0 0 512 512" xmlns:v="https://qsim.top">
    <title>ZigouLogo</title>
    <circle cx="256" cy="256" r="256" />
    <defs>
        <filter id="A" filterUnits="userSpaceOnUse" x="46.8" y="-21.8" width="407.2" height="532.2">
            <feColorMatrix values="1 0 0 0 0  0 1 0 0 0  0 0 1 0 0  0 0 0 1 0" />
        </filter>
    </defs>
    <mask maskUnits="userSpaceOnUse" x="46.8" y="-21.8" width="407.2" height="532.2" id="B">
        <circle cx="256" cy="256" r="230" fill="#fff" filter="url(#A)" />
    </mask>
    <path d="M187 445.6l-33.5-56m-54.4-80.3l-33.5-56M92.8 402l-33.5-56m213.4 105.9l-33.5-56m130.6 102l-33.5-56m59.9-15.3l-33.5-56M118.1 191l-33.5-56m174.8 25.5l-33.5-56m215.6 57l-33.5-56m-56.6 28.8l-33.5-56M155.2 97.9l-33.5-56m126.7 4.8l-33.5-56" mask="url(#B)" stroke="#fff" stroke-width="25" stroke-linecap="round" />
    <path d="M479.9 227.4c-15.8-37.7-53.3-72.5-136.6-72.5-25.7 0-54.4 5.5-84.1 16.2-11.6-25.2-33.7-39.7-55.1-35.3-13.6 2.8-25 12.2-31.9 27.3-6.5 15-8.3 31.7-5.1 47.8.4 2.5 1.1 4.9 1.8 7.2-40.3 28.7-63.9 58.9-63.9 82 0 56.4 96 64 199.7 64 100 0 186.3 0 186.3-77.9.2-13.9-1.6-27.5-4.9-40.9-1.6-6-.9-4.2-3.8-12.2M304.7 345c-77.9 0-181.2-4.6-181.2-44.8 0-14.1 19-41.4 61.4-70.2l6.2-4.2-2.7-7.2c-1.3-3.7-2.5-7.4-3.1-11.3-2.5-12-1.3-24.7 3.6-36 4.2-9.2 10.9-15.2 18.7-16.9 1.3-.2 2.7-.5 4-.5 13.4 0 27.4 12.9 33.7 32.1l3.1 9.2 8.9-3.5c30.6-11.8 60.5-18 86.1-18 106.9 0 129.2 61.2 129.2 112.3-.1 56.4-60.8 59-167.9 59h0z" />
    <g fill="#fff">
        <path d="M271.2 344.5c-77.2-1.8-123.2-10.9-140.1-27.7-7.6-7.4-9.4-15.7-5.6-25.4 3.3-8.5 10-18.3 21-29.3 10.7-11.1 21.4-19.9 37.7-31.4 3.8-2.8 6.9-5.1 6.9-5.3-2.9-7.9-3.6-9.9-4.2-12.2-3.3-12-3.6-23.6-.4-34.4 3.6-12.9 10.7-21.3 20.1-24 2.9-.9 7.6-.9 10.7 0 8.3 2.3 15.8 8.5 21.6 17.8 2.5 3.9 4.7 8.8 7.1 15.9 1.6 4.6 2.5 6.7 2.7 6.7s3.6-1.4 7.4-2.8c26.1-9.9 48.2-15.5 70.5-17.6 12.9-1.4 32.1-.9 46 .9 27.9 3.7 49.1 11.8 65.6 25.6 3.8 3 10.3 9.7 12.9 13.4 10 13.2 16.5 28.6 19.6 47.4 1.3 8.1 1.6 12.2 1.6 22.4 0 8.8 0 9.7-.7 12.7-2.7 14.8-10.7 25.4-24.5 32.6-16.3 8.3-40.2 12.7-80.1 14.3-19.2.6-71.7 1.1-95.8.4h0z" />
        <path d="M271.2 344.5c-83.7-1.8-130.8-12.5-143.9-32.1-6.5-9.7-4.7-20.3 6.5-35.6 10.5-14.8 27.2-30 50.7-46.2l6.9-4.9s-.7-1.6-1.3-3.5c-2.7-7.4-4.2-12.5-5.1-18.5-.7-4.2-.7-13.6 0-17.8 2.7-16.6 10.5-28 21.6-31.2 2.9-.9 7.6-.9 10.7 0 8.3 2.3 15.8 8.5 21.6 17.8 2.5 3.9 4.9 9.2 7.1 16.2 1.1 3.5 2.2 6.2 2.5 6.5.2 0 4.2-1.4 8.9-3 25.2-9.7 47.5-15 69.4-17.1 12.3-1.2 29.9-.9 43.5.7 28.8 3.2 50.9 11.8 68.1 25.9 3.6 3 10.3 9.7 12.9 13.4 12.5 16.2 19.2 35.6 21.2 60.5.4 4.9.4 15 0 18.5-1.8 16.4-10 28.4-25.2 36.3-16.1 8.3-40.2 12.7-79.9 14.3-19.6 0-72.5.5-96.2-.2h0z" />
    </g>
    <circle cx="198" cy="256" r="16" mask="url(#D)" />
</svg>
